700 0 1 0           
30 Autodesk Translation Framework 20 ASM 230.7.0.65535 NT 24 Fri Jun  6 14:39:24 2025 
1 9.999999999999999547e-07 1.000000000000000036e-10 
body $1 -1 $-1 $2 $-1 $3 #
rgb_color-st-attrib $-1 -1 $4 $-1 $0 0.7490196078431372584 0.7490196078431372584 0.7490196078431372584 #
lump $-1 -1 $-1 $-1 $5 $0 #
transform $-1 -1 1 0 0 0 1 0 0 0 1 0 0 0 1 no_rotate no_reflect no_shear #
DXID-attrib $-1 -1 $-1 $1 $0 @10 ASM ENTITY @97 PART8V2.IPT|:|1998C73A4A8682A4C1684C05537F758277233780|:|DA4B9237BACCCDF19C0760CAB7AEC4A8359010B0 #
shell $-1 -1 $-1 $-1 $-1 $6 $-1 $2 #
face $7 -1 $-1 $8 $9 $5 $-1 $10 forward single #
DXID-attrib $-1 -1 $-1 $-1 $6 @10 ASM ENTITY @36 56608cde-edd7-4be8-ab24-c4f2f0acf171 #
face $11 -1 $-1 $12 $13 $5 $-1 $14 forward single #
loop $-1 -1 $-1 $-1 $15 $6 #
plane-surface $-1 -1 $-1 -13.49165204522769379 -57.00000000000001421 -6.480913368136008934 -0.6233004642874652168 -0.707106781186548794 0.3339109630111419813 4.72221412515418848 0 8.814799700287821338 forward_v I I I I #
DXID-attrib $-1 -1 $-1 $-1 $8 @10 ASM ENTITY @36 4ce1d483-9223-417d-9bc9-b4e1352611b3 #
face $16 -1 $-1 $17 $18 $5 $-1 $19 forward single #
loop $-1 -1 $-1 $-1 $20 $8 #
plane-surface $-1 -1 $-1 -13.42868919022563823 -57.00000000000001421 -12.1869221026973289 -0.3339109630111427029 -0.7071067811865472397 -0.6233004642874666601 -8.814799700287821338 0 4.722214125154187592 forward_v I I I I #
coedge $-1 -1 $-1 $21 $22 $23 $24 forward $9 $-1 #
DXID-attrib $-1 -1 $-1 $-1 $12 @10 ASM ENTITY @36 0237e60b-2d68-494a-b59c-b01e58373248 #
face $25 -1 $-1 $26 $27 $5 $-1 $28 forward single #
loop $-1 -1 $-1 $-1 $29 $12 #
plane-surface $-1 -1 $-1 -10.84721213514134242 -57 -7.897577605682269741 0.6233004642874657719 -0.7071067811865482389 -0.3339109630111422033 -4.722214125154187592 0 -8.814799700287821338 forward_v I I I I #
coedge $-1 -1 $-1 $30 $31 $32 $33 forward $13 $-1 #
coedge $-1 -1 $-1 $34 $15 $35 $36 forward $9 $-1 #
coedge $-1 -1 $-1 $15 $34 $31 $37 forward $9 $-1 #
coedge $-1 -1 $-1 $38 $39 $15 $24 reversed $40 $-1 #
edge $-1 -1 $-1 $41 -0.4000000000000007438 $42 -9.786393584718469101e-17 $23 $43 forward @7 unknown #
DXID-attrib $-1 -1 $-1 $-1 $17 @10 ASM ENTITY @36 0b0c68b5-292d-4ec4-a5fa-cca0c534fb6b #
face $44 -1 $-1 $45 $40 $5 $-1 $46 forward single #
loop $-1 -1 $-1 $-1 $47 $17 #
plane-surface $-1 -1 $-1 -11.46715662517845757 -57.00000000000001421 -10.73387819225753326 0.2046292787566825755 -0.7071067811865472397 -0.6768506912721006241 -9.572114272986087968 0 -2.893895012763250119 forward_v I I I I #
coedge $-1 -1 $-1 $48 $49 $50 $51 forward $18 $-1 #
coedge $-1 -1 $-1 $52 $20 $53 $54 forward $13 $-1 #
coedge $-1 -1 $-1 $20 $52 $22 $37 reversed $13 $-1 #
coedge $-1 -1 $-1 $55 $56 $20 $33 reversed $57 $-1 #
edge $-1 -1 $-1 $58 -0.3749999999999999445 $59 -0.07499999999999834577 $32 $60 forward @7 unknown #
coedge $-1 -1 $-1 $22 $21 $61 $62 forward $9 $-1 #
coedge $-1 -1 $-1 $63 $64 $21 $36 reversed $65 $-1 #
edge $-1 -1 $-1 $42 0.0353553390593277575 $66 0.3181980515339464244 $21 $67 reversed @7 unknown #
edge $-1 -1 $-1 $58 0 $41 0.3464101615137746837 $22 $68 forward @7 unknown #
coedge $-1 -1 $-1 $69 $23 $52 $70 reversed $40 $-1 #
coedge $-1 -1 $-1 $23 $71 $63 $72 reversed $40 $-1 #
loop $-1 -1 $-1 $-1 $39 $26 #
vertex $-1 -1 $-1 $24 $73 #
vertex $-1 -1 $-1 $24 $74 #
straight-curve $-1 -1 $-1 -12.61017207519891059 -58.00000000000000711 -6.953134780651427427 4.72221412515418848 0 8.814799700287821338 F -1.142438537194234049 F 1.025885269429235525 #
DXID-attrib $-1 -1 $-1 $-1 $26 @10 ASM ENTITY @36 a307e30e-28df-4320-922d-84fd5cbbb6d6 #
face $75 -1 $-1 $76 $77 $5 $-1 $78 forward single #
plane-surface $-1 -1 $-1 -9.965732165112566321 -58.00000000000000711 -8.369799018197685569 0 -1 0 -8.814799700287821338 0 4.722214125154190256 forward_v I I I I #
coedge $-1 -1 $-1 $79 $53 $80 $81 forward $27 $-1 #
coedge $-1 -1 $-1 $82 $29 $83 $84 forward $18 $-1 #
coedge $-1 -1 $-1 $29 $82 $79 $85 forward $18 $-1 #
coedge $-1 -1 $-1 $86 $87 $29 $51 reversed $88 $-1 #
edge $-1 -1 $-1 $89 -0.4000000000000006328 $90 0 $50 $91 forward @7 unknown #
coedge $-1 -1 $-1 $31 $30 $38 $70 forward $13 $-1 #
coedge $-1 -1 $-1 $47 $92 $30 $54 reversed $27 $-1 #
edge $-1 -1 $-1 $59 0 $93 0.2947251516415803629 $30 $94 forward @7 unknown #
coedge $-1 -1 $-1 $95 $32 $96 $97 forward $57 $-1 #
coedge $-1 -1 $-1 $32 $95 $98 $99 reversed $57 $-1 #
loop $-1 -1 $-1 $-1 $32 $100 #
vertex $-1 -1 $-1 $62 $101 #
vertex $-1 -1 $-1 $33 $102 #
straight-curve $-1 -1 $-1 -13.90091060274105672 -56.00000000000000711 -13.06840207272611032 8.814799700287821338 0 -4.72221412515418848 F -3.086771714905094388 F 0.5888671086228046692 #
coedge $-1 -1 $-1 $103 $96 $34 $62 reversed $104 $-1 #
edge $-1 -1 $-1 $66 -9.786393584718469101e-17 $58 0.6000000000000003109 $61 $105 forward @7 unknown #
coedge $-1 -1 $-1 $106 $35 $39 $72 forward $65 $-1 #
coedge $-1 -1 $-1 $35 $107 $103 $108 reversed $65 $-1 #
loop $-1 -1 $-1 $-1 $63 $109 #
vertex $-1 -1 $-1 $36 $110 #
straight-curve $-1 -1 $-1 -12.38980208269171435 -58.25000000000001421 -7.071190133780285159 6.233004642874677259 -7.071067811865462183 -3.339109630111434246 I I #
straight-curve $-1 -1 $-1 -17.20646049034898795 -56.00000000000001421 -11.29757177579328697 7.815598576142636311 -5.773502691896249317 2.362855383484981697 F 0 F 0.3464101615137746837 #
coedge $-1 -1 $-1 $111 $38 $92 $112 reversed $40 $-1 #
edge $-1 -1 $-1 $93 0.1578427124746175081 $41 0.1750000000000001832 $38 $113 forward @7 unknown #
coedge $-1 -1 $-1 $39 $114 $115 $116 reversed $40 $-1 #
edge $117 -1 $-1 $42 0.2999999999999998779 $118 3.176476034853718211 $63 $119 forward @7 unknown #
point $-1 -1 $-1 -14.49905772526058811 -58.00000000000000711 -10.47905466076656289 #
point $-1 -1 $-1 -12.61017207519891059 -58.00000000000000711 -6.953134780651428315 #
DXID-attrib $-1 -1 $-1 $-1 $45 @10 ASM ENTITY @36 b9d65141-4499-4d39-9069-753765720c0c #
face $120 -1 $-1 $121 $88 $5 $-1 $122 forward single #
loop $-1 -1 $-1 $-1 $83 $45 #
plane-surface $-1 -1 $-1 -9.965732165112566321 -58.00000000000000711 -3.138639251350747728 1 0 0 0 0 -10 forward_v I I I I #
coedge $-1 -1 $-1 $92 $47 $49 $85 reversed $27 $-1 #
coedge $-1 -1 $-1 $98 $123 $47 $81 reversed $124 $-1 #
edge $-1 -1 $-1 $59 -0.3535533905932732313 $89 -0.07071067811865447417 $80 $125 forward @7 unknown #
coedge $-1 -1 $-1 $49 $48 $111 $126 forward $18 $-1 #
coedge $-1 -1 $-1 $127 $128 $48 $84 reversed $77 $-1 #
edge $-1 -1 $-1 $90 -0.3219146722950656514 $129 0.1464631429116101113 $83 $130 forward @7 unknown #
edge $-1 -1 $-1 $131 0 $89 0.294725151641580918 $49 $132 forward @7 unknown #
coedge $-1 -1 $-1 $133 $50 $123 $134 reversed $88 $-1 #
coedge $-1 -1 $-1 $50 $135 $127 $136 forward $88 $-1 #
loop $-1 -1 $-1 $-1 $50 $76 #
vertex $-1 -1 $-1 $51 $137 #
vertex $-1 -1 $-1 $51 $138 #
straight-curve $-1 -1 $-1 -9.96573216511255211 -56 -8.369799018197692675 4.72221412515418848 0 8.814799700287821338 F -1.156724251479952059 F 1.239218602762574672 #
coedge $-1 -1 $-1 $53 $79 $69 $112 forward $27 $-1 #
vertex $-1 -1 $-1 $54 $139 #
straight-curve $-1 -1 $-1 -14.56202058026262947 -56.00000000000000711 -12.71423601333955489 0.7267819076365369391 -6.785983445458470875 7.309050330699315978 F 0 F 0.2947251516415803629 #
coedge $-1 -1 $-1 $56 $55 $140 $141 forward $57 $-1 #
coedge $-1 -1 $-1 $61 $142 $55 $97 reversed $104 $-1 #
edge $143 -1 $-1 $58 0.2000000000000001776 $144 0.5 $96 $145 forward @7 unknown #
coedge $-1 -1 $-1 $146 $80 $56 $99 forward $124 $-1 #
edge $-1 -1 $-1 $59 -4.525000000000000355 $147 -4.225000000000000533 $56 $148 forward @7 unknown #
face $149 -1 $-1 $150 $57 $5 $-1 $151 forward single #
point $-1 -1 $-1 -17.20646049034898795 -56.00000000000000711 -11.29757177579328697 #
point $-1 -1 $-1 -14.56202058026262947 -56.00000000000000711 -12.71423601333955489 #
coedge $-1 -1 $-1 $152 $61 $64 $108 forward $104 $-1 #
loop $-1 -1 $-1 $-1 $61 $150 #
straight-curve $-1 -1 $-1 -14.37313201525647521 -56.00000000000001421 -6.008691955620589553 -4.72221412515418848 0 -8.814799700287821338 F -1.025885269429235525 F 1.142438537194234049 #
coedge $-1 -1 $-1 $107 $63 $153 $154 forward $65 $-1 #
coedge $-1 -1 $-1 $64 $106 $155 $156 reversed $65 $-1 #
edge $157 -1 $-1 $66 0.1999999999999992895 $158 0.5 $103 $159 forward @7 unknown #
face $160 -1 $-1 $161 $65 $5 $-1 $162 forward single #
point $-1 -1 $-1 -14.37313201525647521 -56.00000000000001421 -6.008691955620588665 #
coedge $-1 -1 $-1 $163 $69 $82 $126 reversed $40 $-1 #
edge $-1 -1 $-1 $131 0.1535533905932754684 $93 0.2707106781186539579 $69 $164 forward @7 unknown #
straight-curve $-1 -1 $-1 -12.95646777771021974 -58.00000000000000711 -11.3054421326685457 -8.814799700287821338 0 4.72221412515418848 F -0.5888671086228046692 F 3.086771714905094388 #
coedge $-1 -1 $-1 $71 $163 $165 $166 reversed $40 $-1 #
coedge $-1 -1 $-1 $167 $153 $71 $116 forward $168 $-1 #
edge $169 -1 $-1 $118 0 $170 0.2000000000000001776 $115 $171 forward @7 unknown #
DXID-attrib $-1 -1 $-1 $-1 $72 @10 ASM ENTITY @36 92442def-3647-44e5-a0f0-0aba195e698f #
vertex $-1 -1 $-1 $72 $172 #
straight-curve $-1 -1 $-1 -9.965732165112566321 -58.00000000000000711 -8.369799018197685569 -8.814799700287821338 0 4.722214125154190256 F 0 F 3.176476034853718211 #
DXID-attrib $-1 -1 $-1 $-1 $76 @10 ASM ENTITY @36 a82f4296-92de-44d4-a293-81f02d1800fb #
face $173 -1 $-1 $174 $175 $5 $-1 $176 forward single #
plane-surface $-1 -1 $-1 -9.96573216511255211 5 -8.369799018197692675 0.8814799700287822004 0 -0.4722214125154188813 -0 -10 -0 forward_v I I I I #
coedge $-1 -1 $-1 $80 $146 $86 $134 forward $124 $-1 #
loop $-1 -1 $-1 $-1 $80 $174 #
straight-curve $-1 -1 $-1 -11.17776712390213412 -56.00000000000000711 -11.69108961955614312 9.572114272986087968 0 2.893895012763250119 F -2.338172230759025805 F 0.6195897636964619037 #
edge $-1 -1 $-1 $129 -0.3733333333333336279 $131 0.3171572875253830803 $111 $177 forward @7 unknown #
coedge $-1 -1 $-1 $178 $83 $87 $136 reversed $77 $-1 #
coedge $-1 -1 $-1 $83 $179 $163 $180 forward $77 $-1 #
vertex $-1 -1 $-1 $84 $181 #
straight-curve $-1 -1 $-1 -9.965732165112566321 -57.37459402150812338 -5.458889040215194832 0 -4.270057067321780586 9.042489294536947497 I I #
vertex $-1 -1 $-1 $126 $182 #
straight-curve $-1 -1 $-1 -13.2263767282180833 -58.00000000000000711 -10.2210341561896918 4.654366637537831863 6.785983445458459329 -5.682191468204721652 F 0 F 0.294725151641580918 #
coedge $-1 -1 $-1 $183 $86 $184 $185 forward $88 $-1 #
edge $-1 -1 $-1 $186 4.225000000000000533 $89 4.524999999999999467 $86 $187 forward @7 unknown #
coedge $-1 -1 $-1 $87 $188 $189 $190 forward $88 $-1 #
edge $191 -1 $-1 $192 5.800000000000000711 $90 6.099999999999999645 $87 $193 forward @7 unknown #
point $-1 -1 $-1 -11.85461781517423141 -56 -11.89571889831282547 #
point $-1 -1 $-1 -9.96573216511255211 -56 -8.369799018197692675 #
point $-1 -1 $-1 -14.34781967232409272 -58.00000000000000711 -10.56007504626825622 #
coedge $-1 -1 $-1 $194 $195 $95 $141 reversed $196 $-1 #
edge $-1 -1 $-1 $144 -0.1250000000000004996 $147 0.1750000000000019595 $95 $197 forward @7 unknown #
coedge $-1 -1 $-1 $96 $198 $194 $199 forward $104 $-1 #
DXID-attrib $-1 -1 $-1 $-1 $97 @10 ASM ENTITY @36 ae73f869-84b1-4a4a-ae7d-eca7fb033734 #
vertex $-1 -1 $-1 $97 $200 #
straight-curve $-1 -1 $-1 -17.20646049034898795 -58.00000000000000711 -11.29757177579328697 1.864074968517803554e-15 10 -9.986115902773950286e-16 I I #
coedge $-1 -1 $-1 $123 $98 $195 $201 forward $124 $-1 #
vertex $-1 -1 $-1 $99 $202 #
straight-curve $-1 -1 $-1 -14.56202058026262947 -10.75000000000000178 -12.71423601333955489 0 10 0 F -5.345001000000000779 F 1.795001000000000069 #
DXID-attrib $-1 -1 $-1 $-1 $100 @10 ASM ENTITY @36 da07d7b8-ee6d-442f-83b4-6b482aa06e71 #
face $203 -1 $-1 $204 $104 $5 $-1 $205 forward single #
plane-surface $-1 -1 $-1 -15.00276056527703084 -26.50000000000000355 -12.47812530708183765 -0.4722214125154188813 0 -0.8814799700287822004 -8.814799700287821338 0 4.72221412515418848 forward_v I I I I #
coedge $-1 -1 $-1 $206 $103 $207 $208 forward $104 $-1 #
coedge $-1 -1 $-1 $115 $209 $106 $154 reversed $168 $-1 #
edge $210 -1 $-1 $118 0 $211 0.5 $106 $212 forward @7 unknown #
coedge $-1 -1 $-1 $213 $214 $107 $156 forward $215 $-1 #
edge $216 -1 $-1 $158 0.4999999999999999445 $211 3.176476034853718211 $107 $217 forward @7 unknown #
DXID-attrib $-1 -1 $-1 $-1 $108 @10 ASM ENTITY @36 624082a3-bb32-4605-b7c3-7a5ce6c2e78c #
vertex $-1 -1 $-1 $108 $218 #
straight-curve $-1 -1 $-1 -14.37313201525647521 -58.00000000000000711 -6.008691955620588665 1.864074968517803159e-15 10 -9.986115902773946342e-16 F -1.921714738984744213e-32 F 6.300000000000000711 #
DXID-attrib $-1 -1 $-1 $-1 $109 @10 ASM ENTITY @36 23fddfb5-991e-4bba-9825-48eb77643be7 #
face $219 -1 $-1 $220 $221 $5 $-1 $222 forward single #
plane-surface $-1 -1 $-1 -9.965732165112566321 -58.00000000000000711 -8.369799018197685569 -0.4722214125154189923 0 -0.8814799700287820894 -8.814799700287821338 0 4.722214125154190256 forward_v I I I I #
coedge $-1 -1 $-1 $114 $111 $128 $180 reversed $40 $-1 #
straight-curve $-1 -1 $-1 -11.75654612645478281 -58.00000000000000711 -9.776666764958925171 -9.572114272986087968 0 -2.893895012763250119 F -0.6195897636964619037 F 2.338172230759025805 #
coedge $-1 -1 $-1 $223 $224 $114 $166 forward $221 $-1 #
edge $225 -1 $-1 $170 0 $226 3.037277729206669274 $165 $227 forward @7 unknown #
coedge $-1 -1 $-1 $209 $115 $224 $228 forward $168 $-1 #
loop $-1 -1 $-1 $-1 $115 $220 #
DXID-attrib $-1 -1 $-1 $-1 $116 @10 ASM ENTITY @36 24235e93-0108-4a6b-83c7-5cd9c3d4ea1d #
vertex $-1 -1 $-1 $166 $229 #
straight-curve $-1 -1 $-1 -37.96573216511256277 -58.00000000000000711 6.630200981802314431 0 0 10 F 0 F 0.2000000000000001776 #
point $-1 -1 $-1 -37.96573216511256277 -58.00000000000000711 6.630200981802314431 #
DXID-attrib $-1 -1 $-1 $-1 $121 @10 ASM ENTITY @36 d98a6cf9-ea65-4a17-b896-3e4a64548564 #
face $230 -1 $-1 $100 $124 $5 $-1 $231 forward single #
loop $-1 -1 $-1 $-1 $232 $121 #
plane-surface $-1 -1 $-1 -13.58609632773077891 -55.50000000000000711 -9.361463984480076661 0 1 0 0 0 10 forward_v I I I I #
straight-curve $-1 -1 $-1 -11.72869210517013094 -58.00000000000000711 -7.425356193166847696 -4.72221412515418848 0 -8.814799700287821338 F -1.239218602762574672 F 1.156724251479952059 #
coedge $-1 -1 $-1 $179 $127 $233 $234 reversed $77 $-1 #
coedge $-1 -1 $-1 $128 $178 $223 $235 reversed $77 $-1 #
edge $236 -1 $-1 $226 0 $129 0.09958583870419779327 $128 $237 forward @7 unknown #
point $-1 -1 $-1 -9.965732165112566321 -58.00000000000000711 -4.134497638392725882 #
point $-1 -1 $-1 -13.2263767282180833 -58.00000000000000711 -10.2210341561896918 #
coedge $-1 -1 $-1 $238 $133 $239 $240 forward $88 $-1 #
coedge $-1 -1 $-1 $195 $241 $133 $185 reversed $196 $-1 #
edge $-1 -1 $-1 $186 -0.1000000000000005329 $242 0.09999999999999942268 $133 $243 forward @7 unknown #
vertex $-1 -1 $-1 $134 $244 #
straight-curve $-1 -1 $-1 -11.85461781517423141 -10.75000000000000178 -11.89571889831282547 0 -10 0 F -1.795001000000000069 F 5.345001000000000779 #
coedge $-1 -1 $-1 $135 $245 $246 $247 reversed $88 $-1 #
coedge $-1 -1 $-1 $248 $249 $135 $190 reversed $250 $-1 #
edge $251 -1 $-1 $252 0.5 $192 5.800000000000000711 $135 $193 forward @7 unknown #
DXID-attrib $-1 -1 $-1 $-1 $136 @10 ASM ENTITY @36 d74fecb1-d4a7-4b86-9557-c21af9e8db50 #
vertex $-1 -1 $-1 $136 $253 #
straight-curve $-1 -1 $-1 -9.96573216511255211 5 -8.369799018197692675 -0 -10 -0 F -0 F 6.300000000000000711 #
coedge $-1 -1 $-1 $241 $140 $142 $199 reversed $196 $-1 #
coedge $-1 -1 $-1 $140 $184 $146 $201 reversed $196 $-1 #
loop $-1 -1 $-1 $254 $195 $255 #
straight-curve $-1 -1 $-1 -16.10461052781301561 -53.00000000000000711 -11.8878485414375632 8.814799700287821338 0 -4.72221412515418848 I I #
coedge $-1 -1 $-1 $142 $256 $257 $258 forward $104 $-1 #
edge $-1 -1 $-1 $259 -0.09999999999999961697 $144 0.3000000000000002665 $142 $260 forward @7 unknown #
point $-1 -1 $-1 -17.20646049034899505 -53.00000000000000711 -11.2975717757932852 #
edge $-1 -1 $-1 $147 0.03535533905932806281 $186 0.3181980515339467575 $195 $261 forward @7 unknown #
point $-1 -1 $-1 -14.56202058026262947 -53.00000000000000711 -12.71423601333955489 #
DXID-attrib $-1 -1 $-1 $-1 $150 @10 ASM ENTITY @36 08c99e99-8f3d-4d57-86ea-9b6dd35ca54b #
face $262 -1 $-1 $263 $264 $5 $-1 $265 forward single #
plane-surface $-1 -1 $-1 -14.37313201525647521 -58.00000000000000711 -6.008691955620588665 -0.8814799700287822004 2.114710523095536397e-16 0.4722214125154188813 1.864074968517803159e-15 10 -9.986115902773946342e-16 forward_v I I I I #
coedge $-1 -1 $-1 $266 $152 $267 $268 reversed $104 $-1 #
coedge $-1 -1 $-1 $249 $248 $152 $208 reversed $250 $-1 #
edge $269 -1 $-1 $158 0.5 $270 5.800000000000000711 $152 $159 forward @7 unknown #
coedge $-1 -1 $-1 $153 $167 $213 $271 reversed $168 $-1 #
DXID-attrib $-1 -1 $-1 $-1 $154 @10 ASM ENTITY @36 0bdf3ec7-2b6b-4c17-8e6a-df9d16bc4017 #
vertex $-1 -1 $-1 $154 $272 #
straight-curve $-1 -1 $-1 -37.96573216511256277 -58.00000000000000711 6.630200981802314431 0 10 0 I I #
coedge $-1 -1 $-1 $273 $155 $209 $271 forward $215 $-1 #
coedge $-1 -1 $-1 $155 $233 $249 $274 reversed $215 $-1 #
loop $-1 -1 $-1 $-1 $233 $275 #
DXID-attrib $-1 -1 $-1 $-1 $156 @10 ASM ENTITY @36 a455e4a9-ded0-4792-982b-e651c9b7bd14 #
straight-curve $-1 -1 $-1 -9.965732165112566321 -53.00000000000000711 -8.369799018197685569 -8.814799700287821338 0 4.722214125154190256 I I #
point $-1 -1 $-1 -14.37313201525647521 -53.00000000000000711 -6.00869195562059133 #
DXID-attrib $-1 -1 $-1 $-1 $161 @10 ASM ENTITY @36 178145e5-fede-4825-a5df-b1a8a80f2a6b #
face $276 -1 $-1 $275 $168 $5 $-1 $277 forward single #
loop $-1 -1 $-1 $-1 $165 $161 #
plane-surface $-1 -1 $-1 -37.96573216511256277 -58.00000000000000711 8.630200981802316207 0.3874798843708988638 0 0.9218781585480344543 9.218781585480344987 0 -3.874798843708988638 forward_v I I I I #
coedge $-1 -1 $-1 $278 $165 $179 $235 forward $221 $-1 #
coedge $-1 -1 $-1 $165 $278 $167 $228 reversed $221 $-1 #
DXID-attrib $-1 -1 $-1 $-1 $166 @10 ASM ENTITY @36 8785c0d1-5599-4285-92c3-faa795e9a189 #
vertex $-1 -1 $-1 $180 $279 #
straight-curve $-1 -1 $-1 -37.96573216511256277 -58.00000000000000711 8.630200981802316207 9.218781585480344987 0 -3.874798843708988638 F 0 F 3.037277729206669274 #
edge $280 -1 $-1 $170 0 $281 0.5 $167 $282 forward @7 unknown #
point $-1 -1 $-1 -37.96573216511256277 -58.00000000000000711 8.630200981802316207 #
DXID-attrib $-1 -1 $-1 $-1 $174 @10 ASM ENTITY @36 240406e6-9a10-4731-ad9c-720c9c34d7c6 #
plane-surface $-1 -1 $-1 -13.20831919771842955 -10.75000000000000178 -12.30497745582619018 0.2893895012763250119 0 -0.9572114272986088634 -9.572114272986087968 0 -2.893895012763250119 forward_v I I I I #
coedge $-1 -1 $-1 $232 $232 $283 $284 reversed $175 $-1 #
coedge $-1 -1 $-1 $214 $273 $178 $234 forward $215 $-1 #
edge $285 -1 $-1 $286 0 $192 0.5231159766846937842 $178 $287 forward @7 unknown #
edge $288 -1 $-1 $226 0 $286 0.5 $179 $289 forward @7 unknown #
DXID-attrib $-1 -1 $-1 $-1 $180 @10 ASM ENTITY @36 13657f60-1817-4896-bfaa-717534070aff #
straight-curve $-1 -1 $-1 -9.965732165112566321 -58.00000000000000711 -3.138639251350747728 0 0 -10 F 0 F 0.5231159766846937842 #
coedge $-1 -1 $-1 $290 $183 $291 $292 forward $88 $-1 #
coedge $-1 -1 $-1 $293 $294 $183 $240 reversed $295 $-1 #
edge $-1 -1 $-1 $242 -4.225000000000000533 $296 1.075000000000000178 $183 $297 forward @7 unknown #
coedge $-1 -1 $-1 $184 $194 $293 $298 forward $196 $-1 #
vertex $-1 -1 $-1 $185 $299 #
straight-curve $-1 -1 $-1 -11.38239640265880936 -53.00000000000000711 -11.01423892828403872 4.72221412515418848 0 8.814799700287821338 I I #
point $-1 -1 $-1 -11.85461781517423141 -53.00000000000000711 -11.89571889831282547 #
coedge $-1 -1 $-1 $188 $290 $300 $301 reversed $88 $-1 #
coedge $-1 -1 $-1 $302 $303 $188 $247 forward $304 $-1 #
edge $305 -1 $-1 $252 0 $306 0.3000000000000000444 $246 $307 forward @7 unknown #
coedge $-1 -1 $-1 $207 $189 $308 $309 forward $250 $-1 #
coedge $-1 -1 $-1 $189 $207 $214 $274 forward $250 $-1 #
loop $-1 -1 $-1 $-1 $249 $310 #
DXID-attrib $-1 -1 $-1 $-1 $190 @10 ASM ENTITY @36 63df10ed-17d9-4e54-ae9f-ea647c767008 #
vertex $-1 -1 $-1 $247 $311 #
point $-1 -1 $-1 -9.965732165112566321 -53.00000000000000711 -8.369799018197685569 #
loop $-1 -1 $-1 $-1 $312 $255 #
face $313 -1 $-1 $314 $196 $5 $-1 $315 reversed single #
coedge $-1 -1 $-1 $198 $316 $317 $318 forward $104 $-1 #
coedge $-1 -1 $-1 $294 $293 $198 $258 reversed $295 $-1 #
edge $-1 -1 $-1 $319 -4.225000000000000533 $259 1.075000000000000178 $198 $320 forward @7 unknown #
vertex $-1 -1 $-1 $258 $321 #
straight-curve $-1 -1 $-1 -15.78979625280273247 -53.00000000000000711 -8.653131865706939152 -4.72221412515418848 -0 -8.814799700287821338 I I #
straight-curve $-1 -1 $-1 -14.90044592589868699 -53.00000000000000711 -12.81655065271789518 9.572114272986087968 0 2.893895012763250119 I I #
DXID-attrib $-1 -1 $-1 $-1 $204 @10 ASM ENTITY @36 f8f67ce3-2cb3-42cb-9d84-52298a087954 #
face $322 -1 $-1 $323 $324 $5 $-1 $325 forward single #
loop $-1 -1 $-1 $-1 $326 $204 #
plane-surface $-1 -1 $-1 -13.28352518695216133 3.999999999999996891 -6.092409899355041958 -0.6233004642874664381 0.7071067811865474617 0.3339109630111426474 4.72221412515418848 0 8.814799700287821338 forward_v I I I I #
coedge $-1 -1 $-1 $316 $206 $326 $327 reversed $104 $-1 #
coedge $-1 -1 $-1 $328 $329 $206 $268 forward $330 $-1 #
edge $-1 -1 $-1 $331 -3.199999999999999734 $270 -2.900000000000000355 $267 $332 forward @7 unknown #
DXID-attrib $-1 -1 $-1 $-1 $208 @10 ASM ENTITY @36 afb8f1c7-61d1-48ee-b2a9-d595d10c14ed #
vertex $-1 -1 $-1 $208 $333 #
edge $334 -1 $-1 $211 0 $281 0.2000000000000001776 $209 $335 forward @7 unknown #
point $-1 -1 $-1 -37.96573216511256277 -53.00000000000000711 6.630200981802314431 #
coedge $-1 -1 $-1 $233 $213 $278 $336 forward $215 $-1 #
edge $-1 -1 $-1 $158 0.4427300793392004441 $192 0.9427300793392003886 $249 $337 forward @7 unknown #
face $338 -1 $-1 $310 $215 $5 $-1 $339 forward single #
DXID-attrib $-1 -1 $-1 $-1 $220 @10 ASM ENTITY @36 0bf71f40-fe5e-435a-841d-09be5866d43e #
plane-surface $-1 -1 $-1 -37.96573216511256277 -58.00000000000000711 6.630200981802314431 -1 0 0 0 0 10 forward_v I I I I #
coedge $-1 -1 $-1 $224 $223 $273 $336 reversed $221 $-1 #
point $-1 -1 $-1 -9.965732165112566321 -58.00000000000000711 -3.138639251350747728 #
DXID-attrib $-1 -1 $-1 $-1 $228 @10 ASM ENTITY @36 de3a3146-3872-447d-ae52-64fb8df016b3 #
vertex $-1 -1 $-1 $336 $340 #
straight-curve $-1 -1 $-1 -37.96573216511256277 -58.00000000000000711 8.630200981802316207 0 10 0 I I #
coedge $-1 -1 $-1 $283 $283 $232 $284 forward $341 $-1 #
edge $-1 -1 $-1 $342 -3.141592653589792672 $342 3.14159265358979356 $283 $343 forward @7 unknown #
DXID-attrib $-1 -1 $-1 $-1 $234 @10 ASM ENTITY @36 2d9d3d18-b1d9-4707-a30b-c31d41b4d4c0 #
vertex $-1 -1 $-1 $234 $344 #
straight-curve $-1 -1 $-1 -9.965732165112566321 -53.00000000000000711 -3.138639251350747728 0 0 -10 I I #
DXID-attrib $-1 -1 $-1 $-1 $235 @10 ASM ENTITY @36 76d0329a-96c8-43f6-b6cb-3aea63d6dd27 #
straight-curve $-1 -1 $-1 -9.965732165112566321 -58.00000000000000711 -3.138639251350747728 0 10 0 I I #
coedge $-1 -1 $-1 $245 $238 $345 $346 reversed $88 $-1 #
coedge $-1 -1 $-1 $347 $348 $238 $292 reversed $349 $-1 #
edge $-1 -1 $-1 $296 -0.09999999999999943656 $350 0.1000000000000005329 $238 $351 forward @7 unknown #
coedge $-1 -1 $-1 $257 $239 $241 $298 reversed $295 $-1 #
coedge $-1 -1 $-1 $239 $257 $347 $352 reversed $295 $-1 #
loop $-1 -1 $-1 $-1 $293 $353 #
vertex $-1 -1 $-1 $240 $354 #
straight-curve $-1 -1 $-1 -10.9101749901433962 -10.75000000000000178 -10.13275895825526263 0 10 0 I I #
edge $355 -1 $-1 $259 -0.5000000000000013323 $242 -1.957278716943693574e-16 $241 $356 forward @7 unknown #
point $-1 -1 $-1 -10.91017499014339975 -53.00000000000000711 -10.13275895825525907 #
coedge $-1 -1 $-1 $357 $358 $245 $301 forward $359 $-1 #
edge $-1 -1 $-1 $306 0.0440739985014391919 $360 0.4440739985014398039 $245 $361 forward @7 unknown #
coedge $-1 -1 $-1 $362 $246 $358 $363 reversed $304 $-1 #
coedge $-1 -1 $-1 $246 $364 $365 $366 forward $304 $-1 #
loop $-1 -1 $-1 $-1 $302 $367 #
DXID-attrib $-1 -1 $-1 $-1 $247 @10 ASM ENTITY @36 d28359ac-ba7f-4533-8999-9557d6cfac83 #
vertex $-1 -1 $-1 $301 $368 #
straight-curve $-1 -1 $-1 -9.965732165112548557 0 -8.369799018197694451 0 10 0 I I #
coedge $-1 -1 $-1 $365 $369 $248 $309 reversed $370 $-1 #
edge $371 -1 $-1 $252 0 $270 0.5000000000000006661 $308 $372 forward @7 unknown #
face $373 -1 $-1 $374 $250 $5 $-1 $375 reversed single #
point $-1 -1 $-1 -9.965732165112548557 0 -8.369799018197694451 #
coedge $-1 -1 $-1 $312 $312 $376 $377 forward $254 $-1 #
DXID-attrib $-1 -1 $-1 $-1 $255 @10 ASM ENTITY @36 4c5e5129-180f-4017-93bd-b5f9b10c47f2 #
face $378 -1 $-1 $379 $341 $5 $-1 $380 reversed single #
plane-surface $-1 -1 $-1 -17.20646049034899505 -53.00000000000000711 -11.2975717757932852 0 -1 0 8.814799700287821338 0 -4.72221412515418848 forward_v I I I I #
coedge $-1 -1 $-1 $256 $266 $381 $382 reversed $104 $-1 #
coedge $-1 -1 $-1 $383 $347 $256 $318 reversed $349 $-1 #
edge $-1 -1 $-1 $384 -0.3000000000000002665 $319 0.09999999999999968636 $256 $385 forward @7 unknown #
vertex $-1 -1 $-1 $318 $386 #
straight-curve $-1 -1 $-1 -15.31757484028731575 -42.25000000000000711 -7.771651895678163058 -1.864074968517803159e-15 -10 9.986115902773942397e-16 I I #
point $-1 -1 $-1 -15.31757484028732108 -53.00000000000000711 -7.771651895678157729 #
DXID-attrib $-1 -1 $-1 $-1 $263 @10 ASM ENTITY @36 ae761c23-85ff-4b26-84e8-1174059d891a #
face $387 -1 $-1 $388 $359 $5 $-1 $389 forward single #
loop $-1 -1 $-1 $-1 $390 $263 #
plane-surface $-1 -1 $-1 -16.70365315639747195 4.000000000000001776 -12.31700505053305683 0.2046292787566821869 0.7071067811865482389 -0.6768506912720994029 -9.572114272986089745 0 -2.893895012763250119 forward_v I I I I #
coedge $-1 -1 $-1 $391 $392 $266 $327 forward $264 $-1 #
edge $-1 -1 $-1 $393 -0.6440739985014396485 $331 -0.04407399850143928904 $266 $394 forward @7 unknown #
coedge $-1 -1 $-1 $395 $267 $369 $396 forward $330 $-1 #
coedge $-1 -1 $-1 $267 $397 $391 $398 reversed $330 $-1 #
loop $-1 -1 $-1 $-1 $267 $374 #
vertex $-1 -1 $-1 $268 $399 #
straight-curve $-1 -1 $-1 -14.37313201525646988 -29.00000000000000355 -6.008691955620593994 -1.864074968517803159e-15 -10 9.986115902773946342e-16 I I #
point $-1 -1 $-1 -14.37313201525646456 0 -6.008691955620596659 #
DXID-attrib $-1 -1 $-1 $-1 $271 @10 ASM ENTITY @36 6e625adb-f47a-425b-b73c-e3146b784c97 #
straight-curve $-1 -1 $-1 -37.96573216511256277 -53.00000000000000711 6.630200981802314431 0 0 10 I I #
edge $400 -1 $-1 $281 0 $286 3.037277729206669274 $278 $401 forward @7 unknown #
straight-curve $-1 -1 $-1 -18.27570898592406223 -53.00000000000000711 -3.918025721334382538 8.814799700287821338 0 -4.722214125154190256 I I #
DXID-attrib $-1 -1 $-1 $-1 $275 @10 ASM ENTITY @36 a80dbe4a-a847-458d-aa0a-1cc80e2f7c48 #
plane-surface $-1 -1 $-1 -23.96573216511256987 -53.00000000000000711 0.1302009818023153187 0 1 0 0 0 10 forward_v I I I I #
point $-1 -1 $-1 -37.96573216511256277 -53.00000000000000711 8.630200981802316207 #
loop $-1 -1 $-1 $402 $283 $314 #
vertex $-1 -1 $-1 $284 $403 #
ellipse-curve $-1 -1 $-1 -14.05831774024619563 -55.50000000000000711 -10.71516536702427302 -0 -1 -0 0.8814799700287822004 0 -0.4722214125154192144 1 I I #
point $-1 -1 $-1 -9.965732165112566321 -53.00000000000000711 -3.138639251350747728 #
coedge $-1 -1 $-1 $404 $405 $290 $346 forward $406 $-1 #
edge $-1 -1 $-1 $360 -1.375000000000000444 $350 -1.075000000000000178 $290 $407 forward @7 unknown #
coedge $-1 -1 $-1 $317 $291 $294 $352 forward $349 $-1 #
coedge $-1 -1 $-1 $291 $383 $404 $408 reversed $349 $-1 #
loop $-1 -1 $-1 $409 $348 $410 #
vertex $-1 -1 $-1 $292 $411 #
straight-curve $-1 -1 $-1 -11.38239640265880936 0 -11.01423892828403872 -4.72221412515418848 0 -8.814799700287821338 I I #
edge $412 -1 $-1 $296 -0.5000000000000016653 $319 -0 $347 $413 forward @7 unknown #
face $414 -1 $-1 $109 $295 $5 $-1 $415 reversed single #
point $-1 -1 $-1 -10.9101749901433962 0 -10.13275895825526085 #
DXID-attrib $-1 -1 $-1 $-1 $298 @10 ASM ENTITY @36 0577d73a-c88b-40e6-a2c9-4a158ff9f4f1 #
straight-curve $-1 -1 $-1 -10.91017499014339798 -53.00000000000000711 -10.13275895825525907 8.814799700287823114 0 -4.722214125154190256 I I #
coedge $-1 -1 $-1 $416 $300 $417 $418 reversed $359 $-1 #
coedge $-1 -1 $-1 $300 $416 $302 $363 forward $359 $-1 #
loop $-1 -1 $-1 $-1 $416 $323 #
vertex $-1 -1 $-1 $346 $419 #
straight-curve $-1 -1 $-1 -9.757605306837032089 3.000000000000000444 -7.98129554941672037 -4.72221412515418848 0 -8.814799700287821338 F -1.195144604261130672 F 1.200798249981386956 #
coedge $-1 -1 $-1 $364 $302 $420 $421 reversed $304 $-1 #
edge $-1 -1 $-1 $422 -0.2356493773079433862 $306 0.23272843789873221 $302 $423 forward @7 unknown #
coedge $-1 -1 $-1 $303 $362 $424 $425 reversed $304 $-1 #
coedge $-1 -1 $-1 $426 $308 $303 $366 reversed $370 $-1 #
edge $427 -1 $-1 $428 0 $252 0.5231159766846937842 $303 $429 forward @7 unknown #
face $430 -1 $-1 $431 $304 $5 $-1 $432 forward single #
point $-1 -1 $-1 -9.965732165112548557 3.000000000000000444 -8.369799018197694451 #
coedge $-1 -1 $-1 $308 $433 $328 $396 reversed $370 $-1 #
loop $-1 -1 $-1 $-1 $365 $434 #
DXID-attrib $-1 -1 $-1 $-1 $309 @10 ASM ENTITY @36 d2d3a0b6-9081-4a17-afd1-bbfff1e888ed #
straight-curve $-1 -1 $-1 -9.965732165112548557 0 -8.369799018197694451 -8.814799700287821338 0 4.722214125154190256 F 0 F 3.176476034853718211 #
DXID-attrib $-1 -1 $-1 $-1 $310 @10 ASM ENTITY @36 c71e345d-8046-4b5d-871e-96118d11ff30 #
face $435 -1 $-1 $436 $330 $5 $-1 $437 forward single #
plane-surface $-1 -1 $-1 -12.16943209018451455 -26.50000000000000355 -7.189245486909140226 -0.4722214125154189923 0 -0.8814799700287820894 -8.814799700287821338 0 4.722214125154190256 forward_v I I I I #
coedge $-1 -1 $-1 $376 $376 $312 $377 reversed $402 $-1 #
edge $-1 -1 $-1 $438 -3.141592653589792672 $438 3.14159265358979356 $312 $439 forward @7 unknown #
DXID-attrib $-1 -1 $-1 $-1 $314 @10 ASM ENTITY @36 cc60715c-73ff-4c33-b186-377ac8dde9a4 #
face $440 -1 $-1 $353 $441 $5 $-1 $380 reversed single #
cone-surface $-1 -1 $-1 -14.05831774024619563 0 -10.71516536702427302 0 -1 0 0.8814799700287822004 0 -0.4722214125154192144 1 I I 0 1 1.000000000000000444 forward I I I I #
coedge $-1 -1 $-1 $442 $443 $316 $382 forward $444 $-1 #
edge $445 -1 $-1 $384 5.800000000000000711 $393 6.100000000000000533 $316 $145 forward @7 unknown #
coedge $-1 -1 $-1 $348 $317 $443 $446 reversed $349 $-1 #
vertex $-1 -1 $-1 $382 $447 #
straight-curve $-1 -1 $-1 -15.78979625280272359 0 -8.653131865706944481 4.72221412515418848 0 8.814799700287821338 I I #
point $-1 -1 $-1 -15.31757484028732108 0 -7.771651895678157729 #
DXID-attrib $-1 -1 $-1 $-1 $323 @10 ASM ENTITY @36 9245182b-0953-4c40-b097-40553b32aebb #
face $448 -1 $-1 $449 $450 $5 $-1 $451 forward single #
plane-surface $-1 -1 $-1 -10.63908527686581351 4 -7.509074136901300989 0.623300464287466327 0.7071067811865476838 -0.3339109630111425919 -4.72221412515418848 0 -8.814799700287821338 forward_v I I I I #
coedge $-1 -1 $-1 $417 $452 $453 $454 forward $324 $-1 #
coedge $-1 -1 $-1 $455 $326 $329 $398 forward $264 $-1 #
coedge $-1 -1 $-1 $326 $455 $456 $457 forward $264 $-1 #
vertex $-1 -1 $-1 $327 $458 #
straight-curve $-1 -1 $-1 -14.16500515698094631 2.999999999999994227 -5.620188486839622577 4.72221412515418848 0 8.814799700287821338 F -1.186512535695672499 F 0.9818112709277969641 #
coedge $-1 -1 $-1 $397 $328 $459 $460 forward $330 $-1 #
edge $461 -1 $-1 $270 0.5000000000000006661 $462 3.176476034853718211 $328 $372 forward @7 unknown #
coedge $-1 -1 $-1 $329 $395 $463 $464 reversed $330 $-1 #
edge $-1 -1 $-1 $331 -0.141421356237309892 $465 0.1414213562373095867 $391 $466 reversed @7 unknown #
point $-1 -1 $-1 -14.37313201525646278 2.999999999999993783 -6.008691955620597547 #
DXID-attrib $-1 -1 $-1 $-1 $336 @10 ASM ENTITY @36 44daeef9-32a6-4dfb-b286-42d81c7335a6 #
straight-curve $-1 -1 $-1 -37.96573216511256277 -53.00000000000000711 8.630200981802316207 9.218781585480344987 0 -3.874798843708988638 I I #
loop $-1 -1 $-1 $-1 $376 $314 #
point $-1 -1 $-1 -14.93979771027497705 -55.50000000000000711 -10.24294395450885453 #
coedge $-1 -1 $-1 $467 $345 $348 $408 forward $406 $-1 #
coedge $-1 -1 $-1 $345 $467 $468 $469 reversed $406 $-1 #
loop $-1 -1 $-1 $-1 $405 $470 #
straight-curve $-1 -1 $-1 -11.85461781517423141 -10.75000000000000178 -11.89571889831282547 0 -10 0 F -2.195001000000000424 F 4.945001000000000424 #
edge $-1 -1 $-1 $350 -0.1414213562373095312 $471 0.1414213562373091704 $348 $472 forward @7 unknown #
loop $-1 -1 $-1 $-1 $473 $410 #
face $474 -1 $-1 $255 $349 $5 $-1 $475 reversed single #
point $-1 -1 $-1 -11.85461781517423141 0 -11.89571889831282547 #
DXID-attrib $-1 -1 $-1 $-1 $352 @10 ASM ENTITY @36 6f9bcc6e-191c-4cbf-b55f-a9da413af20b #
straight-curve $-1 -1 $-1 -15.31757484028732286 0 -7.771651895678157729 -8.814799700287823114 0 4.722214125154190256 I I #
DXID-attrib $-1 -1 $-1 $-1 $353 @10 ASM ENTITY @36 b1673115-fa67-4d22-aee1-a95f5f89bf50 #
plane-surface $-1 -1 $-1 -13.11387491521536042 -26.50000000000000355 -8.952205426966710178 0.4722214125154188813 0 0.8814799700287822004 8.814799700287821338 0 -4.72221412515418848 forward_v I I I I #
coedge $-1 -1 $-1 $358 $357 $476 $477 forward $359 $-1 #
coedge $-1 -1 $-1 $468 $390 $357 $418 forward $324 $-1 #
edge $-1 -1 $-1 $478 0 $360 0.2947251516415800299 $417 $479 forward @7 unknown #
point $-1 -1 $-1 -11.85461781517423141 3.000000000000002665 -11.89571889831282547 #
coedge $-1 -1 $-1 $476 $480 $362 $421 forward $481 $-1 #
edge $482 -1 $-1 $483 0 $422 0.09958583870419690509 $362 $484 forward @7 unknown #
vertex $-1 -1 $-1 $477 $485 #
straight-curve $-1 -1 $-1 -9.965732165112548557 3.993763711016238727 -6.265354609964100874 0 -4.270057067321787692 -9.042489294536945721 I I #
coedge $-1 -1 $-1 $486 $487 $364 $425 forward $488 $-1 #
edge $489 -1 $-1 $428 0 $483 0.5 $364 $490 forward @7 unknown #
coedge $-1 -1 $-1 $433 $365 $487 $491 reversed $370 $-1 #
DXID-attrib $-1 -1 $-1 $-1 $366 @10 ASM ENTITY @36 21f40a40-e9bd-4e5a-8774-c0d26edda2ac #
vertex $-1 -1 $-1 $425 $492 #
straight-curve $-1 -1 $-1 -9.965732165112548557 0 -3.138639251350756609 0 0 -10 F 0 F 0.5231159766846937842 #
DXID-attrib $-1 -1 $-1 $-1 $367 @10 ASM ENTITY @36 7bc257ec-13ad-4ff9-897a-eba4de83e13e #
face $493 -1 $-1 $410 $494 $5 $-1 $495 forward single #
plane-surface $-1 -1 $-1 -9.965732165112548557 0 -3.138639251350756609 1 0 0 0 0 -10 forward_v I I I I #
coedge $-1 -1 $-1 $369 $426 $496 $497 reversed $370 $-1 #
face $498 -1 $-1 $-1 $370 $5 $-1 $499 reversed single #
DXID-attrib $-1 -1 $-1 $-1 $374 @10 ASM ENTITY @36 0cc6452b-1245-49d0-acbb-bb1d1aa24f92 #
face $500 -1 $-1 $501 $488 $5 $-1 $502 forward single #
plane-surface $-1 -1 $-1 -9.965732165112548557 0 -8.369799018197694451 -0.4722214125154189923 0 -0.8814799700287820894 -8.814799700287821338 0 4.722214125154190256 forward_v I I I I #
vertex $-1 -1 $-1 $377 $503 #
ellipse-curve $-1 -1 $-1 -14.05831774024619563 -53.00000000000000711 -10.71516536702427302 0 -1 0 0.8814799700287822004 0 -0.4722214125154192144 1 I I #
DXID-attrib $-1 -1 $-1 $-1 $379 @10 ASM ENTITY @36 9324616e-5b05-4b6e-ad93-b0dcd09550bd #
loop $-1 -1 $-1 $504 $505 $379 #
coedge $-1 -1 $-1 $506 $381 $507 $508 reversed $444 $-1 #
coedge $-1 -1 $-1 $381 $506 $383 $446 forward $444 $-1 #
loop $-1 -1 $-1 $-1 $442 $449 #
DXID-attrib $-1 -1 $-1 $-1 $382 @10 ASM ENTITY @36 e071d551-290d-42b6-9742-27ab5f46b0b0 #
edge $-1 -1 $-1 $471 0.07499999999999885925 $384 0.3750000000000013323 $443 $509 forward @7 unknown #
point $-1 -1 $-1 -17.20646049034899505 0 -11.2975717757932852 #
DXID-attrib $-1 -1 $-1 $-1 $388 @10 ASM ENTITY @36 649e26fa-cd84-4ad8-b6f1-1ab77912367b #
face $510 -1 $-1 $470 $444 $5 $-1 $151 forward single #
loop $-1 -1 $-1 $-1 $511 $388 #
plane-surface $-1 -1 $-1 -20.63681604850115647 4 -8.325425571478303866 -0.3339109630111427585 0.7071067811865473507 -0.6233004642874666601 -8.814799700287821338 0 4.72221412515418848 forward_v I I I I #
coedge $-1 -1 $-1 $390 $468 $512 $513 forward $324 $-1 #
coedge $-1 -1 $-1 $514 $476 $390 $454 reversed $481 $-1 #
edge $-1 -1 $-1 $515 0.2763467829479329674 $478 0.3935040704733142602 $453 $516 forward @7 unknown #
coedge $-1 -1 $-1 $392 $391 $517 $518 forward $264 $-1 #
coedge $-1 -1 $-1 $511 $507 $392 $457 reversed $450 $-1 #
edge $-1 -1 $-1 $519 -0 $393 0.3464101615137753498 $392 $520 forward @7 unknown #
point $-1 -1 $-1 -17.20646049034897729 2.999999999999998224 -11.29757177579329408 #
coedge $-1 -1 $-1 $496 $521 $395 $460 reversed $522 $-1 #
edge $523 -1 $-1 $462 0 $524 0.5 $395 $525 forward @7 unknown #
DXID-attrib $-1 -1 $-1 $-1 $396 @10 ASM ENTITY @36 c311fcc6-a54f-4a07-bdb9-93889577ade5 #
vertex $-1 -1 $-1 $396 $526 #
coedge $-1 -1 $-1 $527 $517 $397 $464 forward $481 $-1 #
edge $528 -1 $-1 $465 0.3000000000000003775 $524 3.176476034853718211 $397 $529 forward @7 unknown #
vertex $-1 -1 $-1 $398 $530 #
straight-curve $-1 -1 $-1 -13.49165204522767958 3.999999999999999112 -6.480913368136016928 -6.233004642874664825 -7.071067811865474617 3.339109630111427585 I I #
coedge $-1 -1 $-1 $405 $404 $506 $531 forward $406 $-1 #
coedge $-1 -1 $-1 $452 $417 $405 $469 forward $324 $-1 #
edge $-1 -1 $-1 $360 -0.4763467829479329785 $532 -0.1935040704733142214 $405 $533 forward @7 unknown #
face $534 -1 $-1 $367 $406 $5 $-1 $535 forward single #
vertex $-1 -1 $-1 $531 $536 #
straight-curve $-1 -1 $-1 -13.20831919771843133 0 -12.30497745582619018 -9.572114272986087968 0 -2.893895012763250119 I I #
coedge $-1 -1 $-1 $473 $473 $537 $538 forward $409 $-1 #
DXID-attrib $-1 -1 $-1 $-1 $410 @10 ASM ENTITY @36 dda06a4b-648b-494c-84dc-3c8da83c6d0d #
plane-surface $-1 -1 $-1 -12.79906064020507017 0 -13.65867883837038654 0 1 0 -8.814799700287821338 0 4.72221412515418848 forward_v I I I I #
coedge $-1 -1 $-1 $453 $420 $416 $477 reversed $481 $-1 #
edge $-1 -1 $-1 $478 -0.3612312860268204751 $422 0.3292593348318951785 $476 $539 forward @7 unknown #
vertex $-1 -1 $-1 $454 $540 #
straight-curve $-1 -1 $-1 -13.22637672821806021 5 -10.22103415618968292 4.654366637537768803 -6.785983445458461993 -5.682191468204766949 F 0 F 0.2947251516415800299 #
coedge $-1 -1 $-1 $420 $527 $486 $541 forward $481 $-1 #
loop $-1 -1 $-1 $-1 $463 $542 #
DXID-attrib $-1 -1 $-1 $-1 $421 @10 ASM ENTITY @36 761221d7-0385-42d7-8414-dde027905aaa #
vertex $-1 -1 $-1 $421 $543 #
straight-curve $-1 -1 $-1 -9.965732165112548557 5 -3.138639251350756609 0 0 -10 I I #
point $-1 -1 $-1 -9.965732165112548557 5 -4.134497638392725882 #
coedge $-1 -1 $-1 $544 $424 $480 $541 reversed $488 $-1 #
coedge $-1 -1 $-1 $424 $544 $426 $491 forward $488 $-1 #
loop $-1 -1 $-1 $-1 $487 $436 #
DXID-attrib $-1 -1 $-1 $-1 $425 @10 ASM ENTITY @36 839bf21b-de3a-4f29-bbc8-08bb3e642c1c #
straight-curve $-1 -1 $-1 -9.965732165112548557 0 -3.138639251350756609 0 10 0 I I #
edge $545 -1 $-1 $546 0 $428 3.037277729206669274 $487 $547 forward @7 unknown #
point $-1 -1 $-1 -9.965732165112548557 0 -3.138639251350756609 #
DXID-attrib $-1 -1 $-1 $-1 $431 @10 ASM ENTITY @36 0279db5f-4c4c-4c51-a410-68e6ef111de3 #
loop $-1 -1 $-1 $-1 $548 $431 #
plane-surface $-1 -1 $-1 -13.58609632773076292 2.5 -9.361463984480071332 0 -1 0 0 0 -10 forward_v I I I I #
coedge $-1 -1 $-1 $549 $459 $433 $497 forward $522 $-1 #
edge $550 -1 $-1 $462 0 $546 0.2000000000000001776 $496 $551 forward @7 unknown #
DXID-attrib $-1 -1 $-1 $-1 $434 @10 ASM ENTITY @36 f3ad0fe3-9f56-47e7-be52-5ea6ee31ec25 #
plane-surface $-1 -1 $-1 -23.96573216511255211 0 0.1302009818023064369 0 1 0 0 0 10 forward_v I I I I #
DXID-attrib $-1 -1 $-1 $-1 $436 @10 ASM ENTITY @36 159a1209-2e64-4559-a459-a40339dc48cd #
face $552 -1 $-1 $542 $522 $5 $-1 $553 forward single #
plane-surface $-1 -1 $-1 -37.96573216511254856 0 8.630200981802307325 0.3874798843708988638 0 0.9218781585480344543 9.218781585480344987 0 -3.874798843708988638 forward_v I I I I #
point $-1 -1 $-1 -14.93979771027497705 -53.00000000000000711 -10.24294395450885453 #
loop $-1 -1 $-1 $-1 $537 $379 #
coedge $-1 -1 $-1 $505 $505 $548 $554 forward $441 $-1 #
coedge $-1 -1 $-1 $443 $442 $467 $531 reversed $444 $-1 #
coedge $-1 -1 $-1 $456 $512 $442 $508 forward $450 $-1 #
edge $-1 -1 $-1 $532 -0.7427300793392017653 $393 -0.4427300793392014988 $442 $555 forward @7 unknown #
straight-curve $-1 -1 $-1 -13.90091060274105317 0 -13.0684020727261121 -8.814799700287821338 0 4.72221412515418848 I I #
DXID-attrib $-1 -1 $-1 $-1 $449 @10 ASM ENTITY @36 9eaa64f3-96fc-4dcb-9358-965bb7870e5c #
coedge $-1 -1 $-1 $512 $456 $514 $556 forward $450 $-1 #
coedge $-1 -1 $-1 $507 $511 $452 $513 reversed $450 $-1 #
edge $-1 -1 $-1 $532 0 $515 0.2947251516415799744 $452 $557 forward @7 unknown #
coedge $-1 -1 $-1 $517 $453 $511 $556 reversed $481 $-1 #
vertex $-1 -1 $-1 $454 $558 #
straight-curve $-1 -1 $-1 -16.99304265767379718 5 -11.35979362323444697 9.572114272986087968 0 2.893895012763250119 F -1.791114769692438324 F 1.166647224763050827 #
coedge $-1 -1 $-1 $463 $514 $455 $518 reversed $481 $-1 #
edge $-1 -1 $-1 $465 0.04407399850143930986 $519 0.444073998501440137 $517 $559 forward @7 unknown #
vertex $-1 -1 $-1 $518 $560 #
straight-curve $-1 -1 $-1 -14.49905772526057568 5 -10.47905466076657177 -7.815598576142627429 -5.773502691896265304 -2.362855383484970595 F -0 F 0.3464101615137753498 #
coedge $-1 -1 $-1 $459 $549 $527 $561 reversed $522 $-1 #
loop $-1 -1 $-1 $-1 $496 $501 #
DXID-attrib $-1 -1 $-1 $-1 $460 @10 ASM ENTITY @36 b649dc67-656e-4bd0-a80f-fc59717f7c7c #
vertex $-1 -1 $-1 $460 $562 #
straight-curve $-1 -1 $-1 -37.96573216511254856 0 6.630200981802305549 0 10 0 I I #
point $-1 -1 $-1 -37.96573216511254856 0 6.630200981802305549 #
coedge $-1 -1 $-1 $480 $463 $521 $561 forward $481 $-1 #
DXID-attrib $-1 -1 $-1 $-1 $464 @10 ASM ENTITY @36 164ff9d0-39fc-42d1-9ba1-7f61a3fbd2de #
straight-curve $-1 -1 $-1 -9.965732165112548557 5 -8.369799018197694451 -8.814799700287821338 0 4.722214125154190256 I I #
point $-1 -1 $-1 -12.61017207519889816 5 -6.95313478065143542 #
edge $-1 -1 $-1 $471 1.075000000000000178 $532 1.375000000000000222 $506 $563 forward @7 unknown #
vertex $-1 -1 $-1 $469 $564 #
straight-curve $-1 -1 $-1 -16.41426365512114671 3.000000000000002665 -13.27421647783166669 -9.572114272986087968 0 -2.893895012763250119 F -1.166647224763050827 F 1.791114769692438324 #
DXID-attrib $-1 -1 $-1 $-1 $470 @10 ASM ENTITY @36 29cef716-4ecd-4698-a632-30167d49f5ef #
plane-surface $-1 -1 $-1 -13.20831919771842955 -10.75000000000000178 -12.30497745582619018 0.2893895012763250119 0 -0.9572114272986088634 -9.572114272986087968 0 -2.893895012763250119 forward_v I I I I #
point $-1 -1 $-1 -14.56202058026262947 0 -12.71423601333955489 #
coedge $-1 -1 $-1 $537 $537 $473 $538 reversed $504 $-1 #
edge $-1 -1 $-1 $565 -3.14159265358979356 $565 3.141592653589792672 $473 $566 forward @7 unknown #
straight-curve $-1 -1 $-1 -11.52056524689459671 5 -7.036852724385882496 4.72221412515418848 0 8.814799700287821338 F -1.200798249981386956 F 1.195144604261130672 #
point $-1 -1 $-1 -13.22637672821806021 5 -10.22103415618968292 #
edge $567 -1 $-1 $568 0 $483 3.037277729206669274 $486 $569 forward @7 unknown #
face $570 -1 $-1 $434 $481 $5 $-1 $571 forward single #
point $-1 -1 $-1 -9.965732165112548557 5 -3.138639251350756609 #
coedge $-1 -1 $-1 $487 $486 $549 $572 reversed $488 $-1 #
DXID-attrib $-1 -1 $-1 $-1 $491 @10 ASM ENTITY @36 f8299102-f524-4ee9-9f3f-699256e10a44 #
vertex $-1 -1 $-1 $491 $573 #
straight-curve $-1 -1 $-1 -37.96573216511254856 0 8.630200981802307325 9.218781585480344987 0 -3.874798843708988638 F 0 F 3.037277729206669274 #
coedge $-1 -1 $-1 $548 $548 $505 $554 reversed $494 $-1 #
coedge $-1 -1 $-1 $521 $496 $544 $572 forward $522 $-1 #
DXID-attrib $-1 -1 $-1 $-1 $497 @10 ASM ENTITY @36 b9c8456a-8734-4955-a720-0e9834fb0cc3 #
straight-curve $-1 -1 $-1 -37.96573216511254856 0 6.630200981802305549 0 0 10 F 0 F 0.2000000000000001776 #
DXID-attrib $-1 -1 $-1 $-1 $501 @10 ASM ENTITY @36 20865088-9d0f-4bbd-96a4-23dfb883628d #
plane-surface $-1 -1 $-1 -37.96573216511254856 0 6.630200981802305549 -1 0 0 0 0 10 forward_v I I I I #
edge $-1 -1 $-1 $574 -3.14159265358979356 $574 3.141592653589792672 $505 $575 forward @7 unknown #
straight-curve $-1 -1 $-1 -21.10903746101657319 3.000000000000000444 -9.206905541507083512 -8.814799700287821338 0 4.72221412515418848 F -1.406597187962006279 F 2.269041635565892445 #
edge $-1 -1 $-1 $519 0.6427300793392014544 $515 0.6598873668645821589 $514 $576 forward @7 unknown #
straight-curve $-1 -1 $-1 -14.56202058026262947 3.000000000000002665 -12.71423601333955489 0.7267819076365226172 6.785983445458461993 7.309050330699323972 F 0 F 0.2947251516415799744 #
point $-1 -1 $-1 -14.34781967232409805 5 -10.56007504626825622 #
straight-curve $-1 -1 $-1 -12.40204521692337636 5 -6.564631311870462227 -4.72221412515418848 0 -8.814799700287821338 F -0.9818112709277969641 F 1.186512535695672499 #
point $-1 -1 $-1 -14.49905772526057568 5 -10.47905466076657177 #
edge $577 -1 $-1 $524 0 $568 0.2000000000000001776 $521 $578 forward @7 unknown #
point $-1 -1 $-1 -37.96573216511254856 5 6.630200981802305549 #
straight-curve $-1 -1 $-1 -14.56202058026262947 -10.75000000000000178 -12.71423601333955489 0 10 0 F -4.945001000000000424 F 2.195001000000000424 #
point $-1 -1 $-1 -14.56202058026262947 3.000000000000000444 -12.71423601333955489 #
vertex $-1 -1 $-1 $538 $579 #
ellipse-curve $-1 -1 $-1 -14.05831774024619563 0 -10.71516536702427302 0 1 0 0.8814799700287822004 0 -0.4722214125154192144 1 I I #
DXID-attrib $-1 -1 $-1 $-1 $541 @10 ASM ENTITY @36 c0684410-31f6-4368-a997-aaa8ccd9b4f9 #
vertex $-1 -1 $-1 $541 $580 #
straight-curve $-1 -1 $-1 -37.96573216511254856 5 8.630200981802307325 9.218781585480344987 0 -3.874798843708988638 I I #
DXID-attrib $-1 -1 $-1 $-1 $542 @10 ASM ENTITY @36 b64f13bd-262b-4c7b-b6eb-4038a771a40f #
plane-surface $-1 -1 $-1 -23.96573216511255211 5 0.1302009818023064369 0 1 0 0 0 10 forward_v I I I I #
edge $581 -1 $-1 $546 0 $568 0.5 $549 $582 forward @7 unknown #
point $-1 -1 $-1 -37.96573216511254856 0 8.630200981802307325 #
vertex $-1 -1 $-1 $554 $583 #
ellipse-curve $-1 -1 $-1 -14.05831774024619563 2.5 -10.71516536702427302 0 1 0 0.8814799700287822004 0 -0.4722214125154192144 1 I I #
straight-curve $-1 -1 $-1 -20.1645946359857362 5 -7.443945601449522442 8.814799700287821338 0 -4.72221412515418848 F -2.269041635565892445 F 1.406597187962006279 #
DXID-attrib $-1 -1 $-1 $-1 $561 @10 ASM ENTITY @36 3f1388da-5e90-4247-a11b-087f85f5fa76 #
straight-curve $-1 -1 $-1 -37.96573216511254856 5 6.630200981802305549 0 0 10 I I #
point $-1 -1 $-1 -14.93979771027497705 0 -10.24294395450885453 #
point $-1 -1 $-1 -37.96573216511254856 5 8.630200981802307325 #
DXID-attrib $-1 -1 $-1 $-1 $572 @10 ASM ENTITY @36 8d560cd9-8b9c-4f48-a5dd-1a0e928074bc #
straight-curve $-1 -1 $-1 -37.96573216511254856 0 8.630200981802307325 0 10 0 I I #
point $-1 -1 $-1 -14.93979771027497705 2.5 -10.24294395450885453 #
End-of-ACIS-data 